<svg id="Capa_1" data-name="Capa 1" xmlns="http://www.w3.org/2000/svg" viewBox="0 0 100 32"><defs><style>.cls-1{fill:#fff;}</style></defs><path class="cls-1" d="M20.29,3.79c-9.48,0-17.17,5-17.17,11.22v.66c0,6.56,6.72,11.88,17.17,11.88s17.17-5.31,17.17-11.88V15C37.46,8.83,29.77,3.79,20.29,3.79Zm0,21.78C11.17,25.57,3.78,20.84,3.78,15S11.17,4.45,20.29,4.45,36.8,9.18,36.8,15,29.41,25.57,20.29,25.57Z"/><path class="cls-1" d="M29.47,16.11c-1.63-1.42-5.39-4.69-6.41-5.45a4.59,4.59,0,0,0-1.33-.78,2.11,2.11,0,0,0-.65-.1,2.83,2.83,0,0,0-.83.14,6.82,6.82,0,0,0-1.95,1.23l0,0a5.46,5.46,0,0,1-1.67,1.06,2.56,2.56,0,0,1-.62.07,1.57,1.57,0,0,1-1.15-.37s0-.1.05-.19h0l1.44-1.54A6,6,0,0,1,21,8h.12a8.61,8.61,0,0,1,3.21.76,10,10,0,0,0,4.37,1,11.41,11.41,0,0,0,4.8-1.15l-.58-.46a10.71,10.71,0,0,1-4.22,1,9.46,9.46,0,0,1-4.09-1,9.32,9.32,0,0,0-3.49-.82h-.14a6.07,6.07,0,0,0-4,1.41,8,8,0,0,0-2,.36,5.21,5.21,0,0,1-1.4.27l-.53,0A26.61,26.61,0,0,1,8,7.94l-.59.45A24.73,24.73,0,0,0,12.86,10l.71,0a5.8,5.8,0,0,0,1.58-.3c.3-.08.63-.18,1-.24a3.7,3.7,0,0,0-.28.28L14.4,11.32a.74.74,0,0,0-.2.81,1.07,1.07,0,0,0,.38.42,3.08,3.08,0,0,0,1.55.39,2.93,2.93,0,0,0,.61-.06,5.65,5.65,0,0,0,1.93-1.19,6.37,6.37,0,0,1,1.9-1.13,1.88,1.88,0,0,1,.53-.07h.13a2.82,2.82,0,0,1,1.44.69c1.19.9,6.48,5.52,6.53,5.57a1,1,0,0,1,.32.77.89.89,0,0,1-.43.68,1.27,1.27,0,0,1-.69.21,1.15,1.15,0,0,1-.61-.17S26,16.56,25.29,16a.55.55,0,0,0-.31-.16.14.14,0,0,0-.14.06c-.11.13,0,.31.15.43l2.12,2.12a1.09,1.09,0,0,1,.29.58,1,1,0,0,1-.5.87,1.34,1.34,0,0,1-.75.25,1.16,1.16,0,0,1-.61-.18l-.3-.3c-.56-.55-1.13-1.11-1.55-1.46a.52.52,0,0,0-.31-.16.17.17,0,0,0-.14.05c0,.06-.08.15,0,.31l.11.12,1.54,1.73A.6.6,0,0,1,25,21l-.06.07a.93.93,0,0,1-.14.14,1.22,1.22,0,0,1-.76.24l-.2,0a.53.53,0,0,1-.31-.13l0,0c-.08-.08-.86-.88-1.5-1.42a.59.59,0,0,0-.3-.16.17.17,0,0,0-.14.07c-.13.14.06.34.14.42L23,21.64a.21.21,0,0,1-.05.09c-.05.07-.21.23-.69.29h-.17a2.94,2.94,0,0,1-1.29-.39A2,2,0,0,0,19,18.84H19A1.74,1.74,0,0,0,18,17a2.11,2.11,0,0,0-.83-.18,1.73,1.73,0,0,0-.6.11,1.66,1.66,0,0,0-1-.82,2.24,2.24,0,0,0-.7-.12,1.87,1.87,0,0,0-1.1.35,1.67,1.67,0,0,0-2.47-.14c-.41-.31-2-1.35-6.39-2.33l-1-.28c0,.24-.08.48-.11.72l1,.23c4.45,1,5.92,2,6.17,2.2a1.59,1.59,0,0,0-.13.64,1.66,1.66,0,0,0,1.66,1.67,1.55,1.55,0,0,0,.31,0A1.93,1.93,0,0,0,14,20.47a1.52,1.52,0,0,0,.59.12,1.65,1.65,0,0,0,.38-.05,1.9,1.9,0,0,0,1.69,1.1,1.52,1.52,0,0,0,.51-.09A2,2,0,0,0,19,22.77a2,2,0,0,0,1.41-.59,3.8,3.8,0,0,0,1.66.49h.25a1.5,1.5,0,0,0,1.13-.56.41.41,0,0,0,.07-.11,1.74,1.74,0,0,0,.53.08,1.8,1.8,0,0,0,1.08-.38,1.44,1.44,0,0,0,.63-.92v0a1.47,1.47,0,0,0,.36,0,2,2,0,0,0,1.11-.35A1.6,1.6,0,0,0,28,19a1.5,1.5,0,0,0,.37,0,1.92,1.92,0,0,0,1-.32,1.53,1.53,0,0,0,.72-1.17,1.55,1.55,0,0,0-.23-.94,41.56,41.56,0,0,1,6.86-2.15,5.52,5.52,0,0,0-.1-.71A39.84,39.84,0,0,0,29.47,16.11ZM19,22.15a1.33,1.33,0,0,1-1.34-1.28c0-.06,0-.23-.15-.23a.29.29,0,0,0-.16.09.93.93,0,0,1-.66.3,1.07,1.07,0,0,1-.44-.1c-.76-.31-.77-.83-.74-1a.18.18,0,0,0,0-.16l-.05-.05h0a.27.27,0,0,0-.14.06,1,1,0,0,1-1,.16,1.41,1.41,0,0,1-.88-1.63.16.16,0,0,0,0-.14l-.08-.06-.06.07a1.05,1.05,0,0,1-.73.29,1,1,0,1,1,1-1.18l0,.28.16-.24a1.57,1.57,0,0,1,1.22-.66,1.41,1.41,0,0,1,.45.07,1,1,0,0,1,.74,1c0,.14.11.15.13.15a.16.16,0,0,0,.12-.07,1.07,1.07,0,0,1,.77-.32,1.39,1.39,0,0,1,.58.13c1,.42.54,1.68.53,1.69-.08.21-.08.3,0,.35l0,0h0a.8.8,0,0,0,.2-.05,1.53,1.53,0,0,1,.52-.12h0a1.37,1.37,0,0,1,1.35,1.35A1.35,1.35,0,0,1,19,22.15Z"/><path class="cls-1" d="M96,7.86a4,4,0,0,0-5.64,0,4.28,4.28,0,0,0-.93,2.75,4.27,4.27,0,0,0,.93,2.77,4.06,4.06,0,0,0,5.64,0,4.27,4.27,0,0,0,.93-2.77A4.28,4.28,0,0,0,96,7.86Zm-1.53,4.45a1.55,1.55,0,0,1-1.3.6,1.52,1.52,0,0,1-1.29-.6,2.71,2.71,0,0,1-.46-1.7,2.73,2.73,0,0,1,.46-1.7,1.53,1.53,0,0,1,1.29-.59,1.57,1.57,0,0,1,1.3.59,2.8,2.8,0,0,1,.45,1.7A2.77,2.77,0,0,1,94.42,12.31Z"/><path class="cls-1" d="M80.11,7.21A4.63,4.63,0,0,0,78,6.73a3.21,3.21,0,0,0-2.64,1,2.85,2.85,0,0,0-.54,1.59h1.86a1.47,1.47,0,0,1,.27-.67,1.23,1.23,0,0,1,1-.34,2.1,2.1,0,0,1,.94.17.66.66,0,0,1,.32.63.57.57,0,0,1-.42.54,2.7,2.7,0,0,1-.77.17l-.66.08a4.83,4.83,0,0,0-1.7.48,2.09,2.09,0,0,0-1,2,2,2,0,0,0,.65,1.62,2.6,2.6,0,0,0,1.66.57c4.21.19,4.16-2.21,4.2-2.71V9A1.84,1.84,0,0,0,80.11,7.21Zm-1,4.2a1.56,1.56,0,0,1-.55,1.33,2,2,0,0,1-1.16.36,1,1,0,0,1-.68-.22.83.83,0,0,1-.28-.71.88.88,0,0,1,.46-.82,2.92,2.92,0,0,1,.88-.26l.44-.08a4.33,4.33,0,0,0,.52-.13,2.16,2.16,0,0,0,.37-.19Z"/><path class="cls-1" d="M70.53,8.38a1.27,1.27,0,0,1,1.06.44,1.54,1.54,0,0,1,.29.74H74a2.87,2.87,0,0,0-1.1-2.19,4.24,4.24,0,0,0-2.39-.61,3.47,3.47,0,0,0-2.68,1,4.16,4.16,0,0,0-1,2.94,4.09,4.09,0,0,0,.89,2.72,3.37,3.37,0,0,0,2.74,1,3.33,3.33,0,0,0,2.83-1.26,3.11,3.11,0,0,0,.67-1.65H71.87a1.73,1.73,0,0,1-.36.94,1.25,1.25,0,0,1-1,.36A1.35,1.35,0,0,1,69.13,12a3.58,3.58,0,0,1-.2-1.3,3.91,3.91,0,0,1,.2-1.36A1.39,1.39,0,0,1,70.53,8.38Z"/><path class="cls-1" d="M66.26,6.76c-4.26,0-4,3.77-4,3.77v3.83h1.93v-3.6a2.88,2.88,0,0,1,.23-1.3A1.57,1.57,0,0,1,66,8.7h.23l.32,0v-2h-.25Z"/><path class="cls-1" d="M59.16,12.36a1.5,1.5,0,0,1-.27.29,1.66,1.66,0,0,1-1.08.29,1.81,1.81,0,0,1-1-.25A1.73,1.73,0,0,1,56,11.16h5.35a9.7,9.7,0,0,0-.06-1.46,3.69,3.69,0,0,0-.59-1.52A3,3,0,0,0,59.43,7.1a4.13,4.13,0,0,0-1.72-.35,3.55,3.55,0,0,0-2.63,1,4,4,0,0,0-1,2.93,3.54,3.54,0,0,0,1.12,2.94,4,4,0,0,0,2.59.9,3.59,3.59,0,0,0,2.76-1.07,2.77,2.77,0,0,0,.67-1.11Zm-2.6-3.6a1.52,1.52,0,0,1,1.15-.42,1.71,1.71,0,0,1,1.14.39,1.66,1.66,0,0,1,.51,1.16H56.05A2,2,0,0,1,56.56,8.76Z"/><path class="cls-1" d="M53.29,14.36H51.53V9.91a1.24,1.24,0,0,0-1.3-1.37,1.3,1.3,0,0,0-1.34,1.37v4.45H47.12V9.91a1.22,1.22,0,0,0-1.28-1.37A1.29,1.29,0,0,0,44.5,9.91v4.45H42.73V10a3,3,0,0,1,3.11-3.22,2.69,2.69,0,0,1,2.19,1,2.83,2.83,0,0,1,2.2-1A2.94,2.94,0,0,1,53.29,10Z"/><path class="cls-1" d="M88.8,4.43s-1.94-.2-1.94,1.36V7.86A2.18,2.18,0,0,0,86,7.05a2.3,2.3,0,0,0-1.18-.29,2.82,2.82,0,0,0-2.32,1.07,4.81,4.81,0,0,0-.86,3,4,4,0,0,0,.88,2.67,3.72,3.72,0,0,0,2.75,1c3.56,0,3.52-3,3.52-3Zm-2.32,7.9a1.41,1.41,0,0,1-1.23.61A1.37,1.37,0,0,1,84,12.33a3.1,3.1,0,0,1-.4-1.68A3,3,0,0,1,84,9.07a1.36,1.36,0,0,1,1.24-.64,1.48,1.48,0,0,1,1,.35,2.55,2.55,0,0,1,.68,2A2.63,2.63,0,0,1,86.48,12.33Z"/><path class="cls-1" d="M56.85,26.62a.94.94,0,0,1-.29.68,1,1,0,0,1-.68.28h-1V20.86a3.1,3.1,0,0,1,1.17-2.68,3.92,3.92,0,0,1,2.53-.71,3.38,3.38,0,0,1,2.53,1.05,4.12,4.12,0,0,1,.91,2.79,4.51,4.51,0,0,1-.86,2.86A2.65,2.65,0,0,1,59,25.23,2.86,2.86,0,0,1,57.76,25a2,2,0,0,1-.91-.87Zm3.24-5.23a2.85,2.85,0,0,0-.43-1.68,1.54,1.54,0,0,0-2.42,0,2.89,2.89,0,0,0-.39,1.68,2.53,2.53,0,0,0,.42,1.6,1.43,1.43,0,0,0,1.22.59A1.38,1.38,0,0,0,59.66,23a2.69,2.69,0,0,0,.43-1.6"/><path class="cls-1" d="M74.85,24.61v-.47a2.14,2.14,0,0,1-1.35,1A2.81,2.81,0,0,1,71.81,25a3.1,3.1,0,0,1-1.44-1.25,4.25,4.25,0,0,1-.6-2.39,4.64,4.64,0,0,1,.8-2.82,3.06,3.06,0,0,1,2.55-1.08,3.55,3.55,0,0,1,2.48.73,3.13,3.13,0,0,1,1.15,2.69v3.95a3.3,3.3,0,0,1-3.63,3.39,3.18,3.18,0,0,1-3.18-2.41h2a1.57,1.57,0,0,0,1.6.72,1.53,1.53,0,0,0,.84-.55,2.32,2.32,0,0,0,.43-1.35m-3.18-3.22c0,1.29.37,2,1.12,2.15A1.52,1.52,0,0,0,74.43,23a2.05,2.05,0,0,0,.36-1,4.06,4.06,0,0,0,0-1.3,2.59,2.59,0,0,0-.46-1.15,1.24,1.24,0,0,0-1.06-.5,1.3,1.3,0,0,0-1.29.7,3.68,3.68,0,0,0-.33,1.59"/><path class="cls-1" d="M68.12,18A4.7,4.7,0,0,0,66,17.5a3.16,3.16,0,0,0-2.63,1,2.83,2.83,0,0,0-.54,1.59h1.86a1.32,1.32,0,0,1,.27-.68,1.24,1.24,0,0,1,1-.33,1.93,1.93,0,0,1,.93.17.64.64,0,0,1,.32.62.59.59,0,0,1-.41.55,3.21,3.21,0,0,1-.77.17l-.66.08a4.59,4.59,0,0,0-1.7.47,2.09,2.09,0,0,0-1.06,2,2,2,0,0,0,.66,1.62,2.58,2.58,0,0,0,1.66.57c4.2.19,4.15-2.22,4.19-2.72V19.79A1.83,1.83,0,0,0,68.12,18m-1,4.19a1.51,1.51,0,0,1-.55,1.33,2,2,0,0,1-1.16.37,1,1,0,0,1-.68-.22.86.86,0,0,1-.27-.71.89.89,0,0,1,.45-.82,2.91,2.91,0,0,1,.89-.26l.43-.08a3.66,3.66,0,0,0,.52-.14,1.41,1.41,0,0,0,.37-.18Z"/><path class="cls-1" d="M84.06,18.59a4,4,0,0,0-5.65,0,4.55,4.55,0,0,0,0,5.51,4,4,0,0,0,5.65,0,4.55,4.55,0,0,0,0-5.51M82.52,23a1.52,1.52,0,0,1-1.29.6,1.55,1.55,0,0,1-1.3-.6,2.8,2.8,0,0,1-.45-1.7,2.77,2.77,0,0,1,.45-1.7,1.54,1.54,0,0,1,1.3-.59,1.51,1.51,0,0,1,1.29.59,2.77,2.77,0,0,1,.45,1.7,2.8,2.8,0,0,1-.45,1.7"/></svg>